# Blender 4.4.0
# www.blender.org
mtllib beachScene.mtl
o Plane
v -8.592882 0.014704 8.851861
v 9.099268 0.014704 8.851861
v -8.592882 0.014704 -8.840289
v 9.099268 0.014704 -8.840289
vn -0.0000 1.0000 -0.0000
vt 0.000000 0.000000
vt 1.000000 0.000000
vt 1.000000 1.000000
vt 0.000000 1.000000
s 0
usemtl Material.001
f 1/1/1 2/2/1 4/3/1 3/4/1
o Cube
v -1.302550 1.037483 5.327111
v -1.302550 1.375432 5.327111
v -1.302550 1.037483 3.327111
v -1.302550 1.375432 3.327111
v 0.697450 1.037483 5.327111
v 0.697450 1.375432 5.327111
v 0.697450 1.037483 3.327111
v 0.697450 1.375432 3.327111
vn -1.0000 -0.0000 -0.0000
vn -0.0000 -0.0000 -1.0000
vn 1.0000 -0.0000 -0.0000
vn -0.0000 -0.0000 1.0000
vn -0.0000 -1.0000 -0.0000
vn -0.0000 1.0000 -0.0000
vt 0.375000 0.000000
vt 0.625000 0.000000
vt 0.625000 0.250000
vt 0.375000 0.250000
vt 0.625000 0.500000
vt 0.375000 0.500000
vt 0.625000 0.750000
vt 0.375000 0.750000
vt 0.625000 1.000000
vt 0.375000 1.000000
vt 0.125000 0.500000
vt 0.125000 0.750000
vt 0.875000 0.500000
vt 0.875000 0.750000
s 0
usemtl Material.002
f 5/5/2 6/6/2 8/7/2 7/8/2
f 7/8/3 8/7/3 12/9/3 11/10/3
f 11/10/4 12/9/4 10/11/4 9/12/4
f 9/12/5 10/11/5 6/13/5 5/14/5
f 7/15/6 11/10/6 9/12/6 5/16/6
f 12/9/7 8/17/7 6/18/7 10/11/7
o Cube.001
v -1.296962 1.870381 2.000843
v -1.296962 2.208331 2.000843
v -1.296962 1.870381 0.000843
v -1.296962 2.208331 0.000843
v 0.703038 1.870381 2.000843
v 0.703038 2.208331 2.000843
v 0.703038 1.870381 0.000843
v 0.703038 2.208331 0.000843
vn -1.0000 -0.0000 -0.0000
vn -0.0000 -0.0000 -1.0000
vn 1.0000 -0.0000 -0.0000
vn -0.0000 -0.0000 1.0000
vn -0.0000 -1.0000 -0.0000
vn -0.0000 1.0000 -0.0000
vt 0.462973 0.000000
vt 0.712973 0.000000
vt 0.712973 0.250000
vt 0.462973 0.250000
vt 0.712973 0.500000
vt 0.462973 0.500000
vt 0.712973 0.750000
vt 0.462973 0.750000
vt 0.712973 1.000000
vt 0.462973 1.000000
vt 0.212973 0.500000
vt 0.212973 0.750000
vt 0.962973 0.500000
vt 0.962973 0.750000
s 0
usemtl Material.002
f 13/19/8 14/20/8 16/21/8 15/22/8
f 15/22/9 16/21/9 20/23/9 19/24/9
f 19/24/10 20/23/10 18/25/10 17/26/10
f 17/26/11 18/25/11 14/27/11 13/28/11
f 15/29/12 19/24/12 17/26/12 13/30/12
f 20/23/13 16/31/13 14/32/13 18/25/13
o a
v -1.246946 2.592381 -0.988608
v -1.246946 2.930330 -0.988608
v -1.246946 2.592381 -2.988608
v -1.246946 2.930330 -2.988608
v 0.753054 2.592381 -0.988608
v 0.753054 2.930330 -0.988608
v 0.753054 2.592381 -2.988608
v 0.753054 2.930330 -2.988608
vn -1.0000 -0.0000 -0.0000
vn -0.0000 -0.0000 -1.0000
vn 1.0000 -0.0000 -0.0000
vn -0.0000 -0.0000 1.0000
vn -0.0000 -1.0000 -0.0000
vn -0.0000 1.0000 -0.0000
vt -0.018584 0.326153
vt 0.113443 0.113859
vt 0.325737 0.245885
vt 0.193710 0.458180
vt 0.538032 0.377912
vt 0.406005 0.590207
vt 0.750326 0.509939
vt 0.618300 0.722233
vt 0.962621 0.641965
vt 0.830594 0.854260
vt 0.273978 0.802501
vt 0.486273 0.934528
vt 0.670058 0.165617
vt 0.882353 0.297644
s 0
usemtl Material.002
f 21/33/14 22/34/14 24/35/14 23/36/14
f 23/36/15 24/35/15 28/37/15 27/38/15
f 27/38/16 28/37/16 26/39/16 25/40/16
f 25/40/17 26/39/17 22/41/17 21/42/17
f 23/43/18 27/38/18 25/40/18 21/44/18
f 28/37/19 24/45/19 22/46/19 26/39/19
